<svg id="home-run_1_" data-name="home-run (1)" xmlns="http://www.w3.org/2000/svg" width="17.826" height="16.944" viewBox="0 0 17.826 16.944">
  <g id="Group_3138" data-name="Group 3138">
    <g id="Group_3137" data-name="Group 3137" transform="translate(0 0)">
      <path id="Path_4460" data-name="Path 4460" d="M17.527,20.2l-8-7.288a.91.91,0,0,0-1.231,0L.3,20.2a.914.914,0,0,0,.616,1.59H2.192v7.3a.524.524,0,0,0,.524.524H7.1a.524.524,0,0,0,.524-.524V24.661H10.2v4.433a.524.524,0,0,0,.524.524h4.384a.524.524,0,0,0,.524-.524v-7.3h1.278a.914.914,0,0,0,.616-1.59Z" transform="translate(0 -12.675)"/>
    </g>
  </g>
  <g id="Group_3140" data-name="Group 3140" transform="translate(11.976 1.046)">
    <g id="Group_3139" data-name="Group 3139" transform="translate(0 0)">
      <path id="Path_4461" data-name="Path 4461" d="M347.494,42.73h-3.521l4.045,3.678V43.254A.524.524,0,0,0,347.494,42.73Z" transform="translate(-343.973 -42.73)"/>
    </g>
  </g>
</svg>
