<svg xmlns="http://www.w3.org/2000/svg" width="24.477" height="25.65" viewBox="0 0 24.477 25.65">
  <g id="logout_2_" data-name="logout (2)" transform="translate(0.736 0.75)">
    <g id="Group_3446" data-name="Group 3446" transform="translate(0.014)">
      <path id="Path_4633" data-name="Path 4633" d="M22.913,10.684a1.012,1.012,0,0,0-.208-.328L19.835,7.338a.924.924,0,0,0-1.353,0,1.042,1.042,0,0,0,0,1.423l1.238,1.3H17.244V1.006A.982.982,0,0,0,16.286,0H.971a.816.816,0,0,0-.1.019.808.808,0,0,0-.13.025A.9.9,0,0,0,.468.168C.447.182.42.183.4.2S.389.216.382.222A.986.986,0,0,0,.127.54.852.852,0,0,0,.1.625.988.988,0,0,0,.025.86a.658.658,0,0,0,0,.088c0,.02-.013.038-.013.058V21.131a.994.994,0,0,0,.77.986l9.572,2.012a.849.849,0,0,0,.188.02.928.928,0,0,0,.607-.228,1.028,1.028,0,0,0,.35-.778V22.137h4.786a.982.982,0,0,0,.957-1.006V12.075h2.475l-1.238,1.3a1.042,1.042,0,0,0,0,1.423.924.924,0,0,0,1.354,0l2.871-3.018a1.012,1.012,0,0,0,.208-.328A1.055,1.055,0,0,0,22.913,10.684ZM8.6,15.338a.967.967,0,0,1-.928.762.884.884,0,0,1-.233-.03l-1.914-.5a1.011,1.011,0,0,1-.7-1.221.951.951,0,0,1,1.16-.732l1.914.5A1.011,1.011,0,0,1,8.6,15.338Zm6.729,4.787H11.5V4.025a1,1,0,0,0-.682-.964L7.494,2.012h7.836Z" transform="translate(-0.014)" stroke="#fff" stroke-width="1.5"/>
    </g>
  </g>
</svg>
