<svg id="diagram" xmlns="http://www.w3.org/2000/svg" width="27.806" height="27.806" viewBox="0 0 27.806 27.806">
  <path id="Path_10" data-name="Path 10" d="M26.991,187.9h-.869V171.821a.815.815,0,0,0-.815-.815H22.049a.815.815,0,0,0-.815.815V187.9H19.605V177.251a.815.815,0,0,0-.815-.815H15.532a.815.815,0,0,0-.815.815V187.9H13.088v-7.658a.815.815,0,0,0-.815-.815H9.015a.815.815,0,0,0-.815.815V187.9H6.571v-5.7a.815.815,0,0,0-.815-.815H2.5a.815.815,0,0,0-.815.815v5.7H.815a.815.815,0,0,0,0,1.629H26.991a.815.815,0,1,0,0-1.629Z" transform="translate(0 -161.719)"/>
  <path id="Path_11" data-name="Path 11" d="M.815,17.507A28.442,28.442,0,0,0,16.34,12.365a30.1,30.1,0,0,0,9.074-9.311L26.2,6.007a.883.883,0,0,0,1,.576.807.807,0,0,0,.576-1L26.444.607a.815.815,0,0,0-1-.576L20.468,1.365a.815.815,0,0,0,.422,1.574L24.1,2.079a28.28,28.28,0,0,1-8.667,8.934A26.8,26.8,0,0,1,.815,15.878a.815.815,0,1,0,0,1.629Z" transform="translate(0 -0.003)"/>
</svg>
