<svg xmlns="http://www.w3.org/2000/svg" width="257.233" height="116.561" viewBox="0 0 257.233 116.561">
  <path id="Path_4694" data-name="Path 4694" d="M21.273.508a41.271,41.271,0,0,1,8.1.765,27.335,27.335,0,0,1,6.659,2.1A13.867,13.867,0,0,1,40.57,6.628a6.068,6.068,0,0,1,1.672,4.137v4.987H34.761V12.976a3.553,3.553,0,0,0-.935-2.324A7.581,7.581,0,0,0,31.134,8.7a16.844,16.844,0,0,0-4.222-1.332,28.276,28.276,0,0,0-5.639-.51,29.215,29.215,0,0,0-5.526.482,17.943,17.943,0,0,0-4.279,1.275,8.156,8.156,0,0,0-2.777,1.955,3.593,3.593,0,0,0-.963,2.409V32.981a3.528,3.528,0,0,0,.963,2.352,8.38,8.38,0,0,0,2.777,1.927,19.87,19.87,0,0,0,4.279,1.275,30.992,30.992,0,0,0,5.526.453,29.885,29.885,0,0,0,5.639-.482,18.549,18.549,0,0,0,4.222-1.332,7.99,7.99,0,0,0,2.692-1.9,3.522,3.522,0,0,0,.935-2.3V30.147h7.481v4.987A5.753,5.753,0,0,1,41.477,38a8.989,8.989,0,0,1-2.154,2.465,15.254,15.254,0,0,1-3.287,2.04,27.818,27.818,0,0,1-4.25,1.53A37.653,37.653,0,0,1,26.8,45a45.062,45.062,0,0,1-11.051,0,38.705,38.705,0,0,1-5.015-.963,29.361,29.361,0,0,1-4.25-1.53,16.244,16.244,0,0,1-3.287-2.04A9.189,9.189,0,0,1,1.07,38,5.753,5.753,0,0,1,.3,35.134V10.765A5.753,5.753,0,0,1,1.07,7.9,9.012,9.012,0,0,1,3.195,5.41,16.244,16.244,0,0,1,6.482,3.37a25.472,25.472,0,0,1,4.25-1.53A35.709,35.709,0,0,1,15.748.848,43.619,43.619,0,0,1,21.273.508ZM74.941,12.126q0,2.947-.2,6.149a63.357,63.357,0,0,1-.765,6.546H67.121q.255-.963.482-2.1.17-.963.312-2.239a21.265,21.265,0,0,0,.17-2.749,18.57,18.57,0,0,0-4.137.482,11.935,11.935,0,0,0-2.692.963A9.13,9.13,0,0,0,59.5,20.286a11.8,11.8,0,0,1-1.218.907V44.428H51.026V21.023a3.43,3.43,0,0,0-.538-1.53,4.683,4.683,0,0,0-.85-1.02,4.518,4.518,0,0,0-1.162-.793l3-5.554a10.892,10.892,0,0,1,2.069.992,13.444,13.444,0,0,1,1.842,1.388,8.462,8.462,0,0,1,1.757,2.04q1.445-.992,2.664-1.672a21.192,21.192,0,0,1,2.352-1.19,13.327,13.327,0,0,1,2.38-.737,25.486,25.486,0,0,1,2.72-.453q1.5-.17,3.344-.227Q72.476,12.182,74.941,12.126ZM88.883,34.171a2.873,2.873,0,0,0,.935,2.182,7.471,7.471,0,0,0,2.55,1.445,19.051,19.051,0,0,0,3.712.793,40.6,40.6,0,0,0,4.364.227,37.154,37.154,0,0,0,4.477-.255,19.1,19.1,0,0,0,3.655-.822,6.861,6.861,0,0,0,2.465-1.445,2.85,2.85,0,0,0,.907-2.125V12.126l7.538.567V35.984a5.356,5.356,0,0,1-.765,2.805,7.863,7.863,0,0,1-2.069,2.3,14.161,14.161,0,0,1-3.145,1.728,25.33,25.33,0,0,1-3.939,1.218,34.768,34.768,0,0,1-4.448.708,42.818,42.818,0,0,1-4.676.255,43.07,43.07,0,0,1-4.7-.255,35.886,35.886,0,0,1-4.449-.708,25.616,25.616,0,0,1-3.91-1.218,14.16,14.16,0,0,1-3.145-1.728,8.426,8.426,0,0,1-2.1-2.267,5.564,5.564,0,0,1-.737-2.834V12.692l7.48-.567Zm40.351-13.148a3.438,3.438,0,0,0-.538-1.53,4.292,4.292,0,0,0-.879-1.02,5.044,5.044,0,0,0-1.19-.793l3.174-5.554a11.69,11.69,0,0,1,2.1.992,13.379,13.379,0,0,1,1.842,1.388,7.962,7.962,0,0,1,1.729,2.04q1.417-.907,2.89-1.7a23.151,23.151,0,0,1,3.117-1.417,22.306,22.306,0,0,1,3.429-.935,19.483,19.483,0,0,1,3.882-.368,32.942,32.942,0,0,1,7.481.737,13.782,13.782,0,0,1,5.129,2.154,8.443,8.443,0,0,1,2.947,3.542,12.216,12.216,0,0,1,.935,4.959V44.428h-7.424V25.273a7.753,7.753,0,0,0-.425-2.72,6.123,6.123,0,0,0-2.834-3.287,8.639,8.639,0,0,0-2.012-.765,11.069,11.069,0,0,0-2.1-.368,19.528,19.528,0,0,0-2.04-.113,22.546,22.546,0,0,0-3.458.255,22.136,22.136,0,0,0-3.117.708A20.087,20.087,0,0,0,139.094,20q-1.3.6-2.437,1.247V44.428h-7.424Zm63.585-9.407q2.353,0,4.732.227a34.332,34.332,0,0,1,4.563.737,27.891,27.891,0,0,1,4.08,1.275A13.658,13.658,0,0,1,209.48,15.7a8.1,8.1,0,0,1,2.21,2.494,6.164,6.164,0,0,1,.794,3.117l-7.254,1.077a2.9,2.9,0,0,0-1.049-2.182,8.2,8.2,0,0,0-2.777-1.644,18.409,18.409,0,0,0-3.967-1.02,28.411,28.411,0,0,0-4.619-.368,29.387,29.387,0,0,0-4.477.34,19.053,19.053,0,0,0-3.967.963,8.886,8.886,0,0,0-2.834,1.643,2.952,2.952,0,0,0-1.077,2.267V34.171a2.952,2.952,0,0,0,1.077,2.267,9.587,9.587,0,0,0,2.834,1.587,20.385,20.385,0,0,0,3.967.935,32,32,0,0,0,4.477.312,30.734,30.734,0,0,0,4.619-.34,21.068,21.068,0,0,0,3.967-.963,8.8,8.8,0,0,0,2.777-1.587,2.93,2.93,0,0,0,1.049-2.21l7.254,1.813a5.2,5.2,0,0,1-.794,2.805,8.172,8.172,0,0,1-2.21,2.3,14.917,14.917,0,0,1-3.287,1.728,27.887,27.887,0,0,1-4.08,1.218,37.776,37.776,0,0,1-4.563.708,44.36,44.36,0,0,1-4.732.255,44.383,44.383,0,0,1-4.732-.255,37.891,37.891,0,0,1-4.534-.708,27.856,27.856,0,0,1-4.08-1.218,15.8,15.8,0,0,1-3.287-1.728A8.515,8.515,0,0,1,174,38.818a5.258,5.258,0,0,1-.793-2.834V21.306A6.172,6.172,0,0,1,174,18.189a8.256,8.256,0,0,1,2.183-2.494,14.408,14.408,0,0,1,3.287-1.842,27.86,27.86,0,0,1,4.08-1.275,34.407,34.407,0,0,1,4.534-.737Q190.467,11.615,192.819,11.616Zm46.584.51a32.94,32.94,0,0,1,7.48.737,13.764,13.764,0,0,1,5.1,2.154,8.238,8.238,0,0,1,2.919,3.542,12.229,12.229,0,0,1,.935,4.959V44.428h-7.424V25.273a7.752,7.752,0,0,0-.426-2.72,6.126,6.126,0,0,0-2.833-3.287,8.666,8.666,0,0,0-2.012-.765,11.077,11.077,0,0,0-2.1-.368,19.5,19.5,0,0,0-2.04-.113,22.528,22.528,0,0,0-3.457.255,22.086,22.086,0,0,0-3.117.708A20.1,20.1,0,0,0,229.655,20q-1.3.6-2.437,1.247V44.428h-7.424V1.3h7.424V15.866q1.3-.793,2.664-1.473a23.6,23.6,0,0,1,2.833-1.19,20.692,20.692,0,0,1,3.146-.793A21.184,21.184,0,0,1,239.4,12.126ZM21.273,72.242a41.272,41.272,0,0,1,8.1.765,27.336,27.336,0,0,1,6.659,2.1,13.866,13.866,0,0,1,4.534,3.259A6.067,6.067,0,0,1,42.242,82.5v4.988H34.761V84.71a3.553,3.553,0,0,0-.935-2.324,7.58,7.58,0,0,0-2.692-1.955A16.844,16.844,0,0,0,26.912,79.1a28.28,28.28,0,0,0-5.639-.51,29.211,29.211,0,0,0-5.526.482,17.943,17.943,0,0,0-4.279,1.275A8.159,8.159,0,0,0,8.692,82.3a3.593,3.593,0,0,0-.963,2.409v20a3.529,3.529,0,0,0,.963,2.352,8.372,8.372,0,0,0,2.777,1.926,19.859,19.859,0,0,0,4.279,1.276,31.069,31.069,0,0,0,5.526.453,29.851,29.851,0,0,0,5.639-.482,18.545,18.545,0,0,0,4.222-1.332,8,8,0,0,0,2.692-1.9,3.525,3.525,0,0,0,.935-2.3v-2.834h7.481v4.988a5.754,5.754,0,0,1-.765,2.862,8.989,8.989,0,0,1-2.154,2.465,15.237,15.237,0,0,1-3.287,2.04,27.774,27.774,0,0,1-4.25,1.531,37.707,37.707,0,0,1-4.987.963,45.053,45.053,0,0,1-11.051,0,38.761,38.761,0,0,1-5.015-.963,29.312,29.312,0,0,1-4.25-1.531,16.225,16.225,0,0,1-3.287-2.04,9.189,9.189,0,0,1-2.125-2.465A5.754,5.754,0,0,1,.3,106.868V82.5a5.752,5.752,0,0,1,.765-2.862,9.012,9.012,0,0,1,2.125-2.494A16.244,16.244,0,0,1,6.482,75.1a25.47,25.47,0,0,1,4.25-1.53,35.7,35.7,0,0,1,5.015-.992A43.611,43.611,0,0,1,21.273,72.242ZM81.685,104.6a10.5,10.5,0,0,0-1.756-1.218,12.331,12.331,0,0,0-2.579-1.049,21.912,21.912,0,0,0-3.655-.765,33.972,33.972,0,0,0-4.93-.312q-2.522,0-4.789.113a16.87,16.87,0,0,0-3.939.567,5.709,5.709,0,0,0-2.692,1.473,3.892,3.892,0,0,0-.992,2.833v3.627q2.493.4,5.5.652t6.687.255q2.947,0,6.262-.2a60.694,60.694,0,0,0,6.885-.879ZM68.934,83.86q1.417,0,3.429.142t4.194.509a33.808,33.808,0,0,1,4.307.964,16.119,16.119,0,0,1,3.853,1.587,8.915,8.915,0,0,1,2.777,2.323,5.091,5.091,0,0,1,1.049,3.2v21.932q-2.381.481-5.383.821-2.579.312-6.149.567t-7.962.255q-4.364,0-9.294-.368-4.9-.369-10.258-1.275v-10.2a5.268,5.268,0,0,1,.765-2.862,7.017,7.017,0,0,1,2.153-2.125,12.854,12.854,0,0,1,3.2-1.445,29.1,29.1,0,0,1,3.967-.907A40.575,40.575,0,0,1,64,96.526q2.3-.141,4.59-.142a32.982,32.982,0,0,1,5.922.453,31.888,31.888,0,0,1,4.08.936,14.373,14.373,0,0,1,3.088,1.388v-4.59a3.407,3.407,0,0,0-.567-1.984,4.608,4.608,0,0,0-1.53-1.417,8.373,8.373,0,0,0-2.21-.935,18.688,18.688,0,0,0-2.607-.567,26.64,26.64,0,0,0-2.777-.256q-1.388-.056-2.607-.056-1.275,0-2.72.085-1.445.057-2.89.255a21.411,21.411,0,0,0-2.749.567,9.193,9.193,0,0,0-2.324.935,5.343,5.343,0,0,0-1.643,1.445,3.291,3.291,0,0,0-.6,1.984l-7.027-1.813a5.745,5.745,0,0,1,.935-3.287,8.333,8.333,0,0,1,2.465-2.408A14.764,14.764,0,0,1,56.41,85.5a27.4,27.4,0,0,1,4.165-.992A43.093,43.093,0,0,1,64.911,84Q67.064,83.859,68.934,83.86Zm53.668,0q0,2.946-.2,6.149a63.509,63.509,0,0,1-.765,6.546h-6.857q.255-.964.482-2.1.169-.964.311-2.238a21.209,21.209,0,0,0,.17-2.748,18.615,18.615,0,0,0-4.137.481,11.945,11.945,0,0,0-2.691.964,9.091,9.091,0,0,0-1.757,1.105,11.8,11.8,0,0,1-1.219.907v23.235H98.687V92.757a3.432,3.432,0,0,0-.538-1.531,4.686,4.686,0,0,0-.85-1.02,4.519,4.519,0,0,0-1.162-.794l3-5.553a10.942,10.942,0,0,1,2.068.991,13.478,13.478,0,0,1,1.842,1.389,8.456,8.456,0,0,1,1.757,2.04q1.445-.991,2.664-1.672a21.176,21.176,0,0,1,2.352-1.19,13.363,13.363,0,0,1,2.38-.737,25.633,25.633,0,0,1,2.72-.453q1.5-.17,3.343-.226Q120.137,83.916,122.6,83.86Zm25.559,0a43.9,43.9,0,0,1,7.792.623,18.93,18.93,0,0,1,5.809,1.871,9.484,9.484,0,0,1,3.627,3.23,8.462,8.462,0,0,1,1.247,4.647v11.561a8.459,8.459,0,0,1-1.247,4.647,9.479,9.479,0,0,1-3.627,3.23,19.425,19.425,0,0,1-5.809,1.9,45.91,45.91,0,0,1-7.792.595q-2.437,0-4.988-.17-2.55-.2-4.93-.482-2.379-.311-4.477-.708a33.534,33.534,0,0,1-3.571-.85V73.035h7.424V85.9a38.631,38.631,0,0,1,5.27-1.473A26.378,26.378,0,0,1,148.162,83.86Zm-2.04,5.27a16.823,16.823,0,0,0-2.692.2,18.244,18.244,0,0,0-2.267.51,16,16,0,0,0-1.9.708q-.879.368-1.643.737v17.851q.765.255,1.757.51.991.227,2.1.425,1.134.2,2.3.312,1.19.114,2.352.114,1.757,0,3.429-.028a30.656,30.656,0,0,0,3.117-.256,14.627,14.627,0,0,0,2.635-.595,6.176,6.176,0,0,0,2.069-1.105,5.062,5.062,0,0,0,1.36-1.785,6.435,6.435,0,0,0,.482-2.636v-8.33a5.5,5.5,0,0,0-1.049-3.542,6.411,6.411,0,0,0-2.833-2.012,15.267,15.267,0,0,0-4.165-.879Q148.785,89.13,146.122,89.13Zm47.83-5.781q2.381,0,4.733.226a34.4,34.4,0,0,1,4.562.737,27.99,27.99,0,0,1,4.08,1.275,13.641,13.641,0,0,1,3.287,1.843,8.1,8.1,0,0,1,2.211,2.493,6.173,6.173,0,0,1,.793,3.117v14.678a5.209,5.209,0,0,1-.793,2.806,8.186,8.186,0,0,1-2.211,2.3,14.9,14.9,0,0,1-3.287,1.728,27.986,27.986,0,0,1-4.08,1.219,37.927,37.927,0,0,1-4.562.708,44.091,44.091,0,0,1-9.465,0,38.035,38.035,0,0,1-4.534-.708,27.986,27.986,0,0,1-4.08-1.219,15.819,15.819,0,0,1-3.287-1.728,8.5,8.5,0,0,1-2.182-2.267,5.253,5.253,0,0,1-.794-2.834V93.04a6.166,6.166,0,0,1,.794-3.117,8.234,8.234,0,0,1,2.182-2.493,14.424,14.424,0,0,1,3.287-1.843,27.99,27.99,0,0,1,4.08-1.275,34.463,34.463,0,0,1,4.534-.737Q191.6,83.35,193.952,83.349ZM181.541,105.9a2.952,2.952,0,0,0,1.077,2.267,9.534,9.534,0,0,0,2.862,1.587,20.445,20.445,0,0,0,3.967.935,32.6,32.6,0,0,0,4.5.312,30.191,30.191,0,0,0,4.591-.34,21.084,21.084,0,0,0,3.967-.964,8.441,8.441,0,0,0,2.748-1.586,2.931,2.931,0,0,0,1.049-2.211V94.117a2.9,2.9,0,0,0-1.049-2.182,7.881,7.881,0,0,0-2.748-1.643,18.418,18.418,0,0,0-3.967-1.02,27.865,27.865,0,0,0-4.591-.368,29.874,29.874,0,0,0-4.5.34,19.032,19.032,0,0,0-3.967.963,8.843,8.843,0,0,0-2.862,1.643,2.951,2.951,0,0,0-1.077,2.266Zm39.953-13.147a3.422,3.422,0,0,0-.538-1.531,4.3,4.3,0,0,0-.878-1.02,5.038,5.038,0,0,0-1.19-.794l3.174-5.553a11.738,11.738,0,0,1,2.1.991A13.478,13.478,0,0,1,226,86.24a7.979,7.979,0,0,1,1.729,2.04q1.417-.907,2.89-1.7a23.111,23.111,0,0,1,3.117-1.417,22.3,22.3,0,0,1,3.429-.935,19.466,19.466,0,0,1,3.882-.368,32.949,32.949,0,0,1,7.48.737,13.771,13.771,0,0,1,5.129,2.154,8.447,8.447,0,0,1,2.947,3.542,12.232,12.232,0,0,1,.935,4.959v20.912h-7.424V97.007a7.774,7.774,0,0,0-.425-2.72A6.137,6.137,0,0,0,246.855,91a8.659,8.659,0,0,0-2.012-.765,11.08,11.08,0,0,0-2.1-.368,19.49,19.49,0,0,0-2.041-.114,22.534,22.534,0,0,0-3.457.256,22.148,22.148,0,0,0-3.117.708,20.017,20.017,0,0,0-2.777,1.02q-1.3.6-2.437,1.247v23.179h-7.424Z" transform="translate(-0.305 -0.508)" fill="#fff"/>
</svg>
