<svg id="steering-wheel" xmlns="http://www.w3.org/2000/svg" width="24.582" height="24.582" viewBox="0 0 24.582 24.582">
  <g id="Group_15" data-name="Group 15">
    <g id="Group_14" data-name="Group 14">
      <path id="Path_6" data-name="Path 6" d="M12.291,0A12.291,12.291,0,1,0,24.582,12.291,12.339,12.339,0,0,0,12.291,0Zm0,2.881a9.476,9.476,0,0,1,9.026,6.773.714.714,0,0,0-.365-.391A21.19,21.19,0,0,0,12.291,7.25,21.19,21.19,0,0,0,3.63,9.263a.714.714,0,0,0-.365.391A9.476,9.476,0,0,1,12.291,2.881ZM3.067,14.145a.72.72,0,0,0,.594.528l1.73.241a5.067,5.067,0,0,1,4.277,4.277l.241,1.73a.714.714,0,0,0,.425.552A9.491,9.491,0,0,1,3.067,14.145Zm9.224.306a2.161,2.161,0,1,1,2.161-2.161A2.163,2.163,0,0,1,12.291,14.452Zm1.957,7.022a.714.714,0,0,0,.425-.552l.241-1.73a5.067,5.067,0,0,1,4.277-4.277l1.73-.241a.72.72,0,0,0,.594-.528A9.491,9.491,0,0,1,14.248,21.473Z"/>
    </g>
  </g>
  <g id="Group_17" data-name="Group 17" transform="translate(11.571 11.571)">
    <g id="Group_16" data-name="Group 16">
      <path id="Path_7" data-name="Path 7" d="M241.72,241a.72.72,0,1,0,.72.72A.721.721,0,0,0,241.72,241Z" transform="translate(-241 -241)"/>
    </g>
  </g>
</svg>
